<?xml version="1.0" standalone="no"?>
<!DOCTYPE svg PUBLIC "-//W3C//DTD SVG 20010904//EN"
 "http://www.w3.org/TR/2001/REC-SVG-20010904/DTD/svg10.dtd">
<svg version="1.0" xmlns="http://www.w3.org/2000/svg"
 width="401.000000pt" height="391.000000pt" viewBox="0 0 401.000000 391.000000"
 preserveAspectRatio="xMidYMid meet">

<g transform="translate(0.000000,391.000000) scale(0.100000,-0.100000)"
fill="lightgrey" stroke="none">
<path fill="black" d="M1357 3883 c-4 -3 -7 -197 -7 -430 0 -318 -3 -423 -12 -423 -6 0 -79
39 -162 86 -83 48 -169 97 -191 109 -22 13 -118 68 -214 124 -165 95 -175 99
-188 82 -18 -27 -133 -222 -133 -227 0 -2 -16 -28 -35 -58 -19 -30 -35 -58
-35 -61 0 -3 -16 -31 -35 -61 -19 -30 -35 -56 -35 -57 0 -2 -67 -120 -150
-262 l-150 -259 61 -38 c33 -21 77 -47 97 -58 20 -11 62 -35 93 -52 30 -18
153 -89 272 -157 120 -69 216 -129 214 -135 -3 -9 -221 -142 -307 -188 -49
-26 -415 -240 -422 -246 -4 -4 19 -52 51 -107 32 -55 160 -277 286 -493 125
-217 233 -396 240 -398 6 -3 146 73 311 167 164 95 319 183 344 197 25 13 49
28 55 33 5 5 17 9 27 9 17 0 18 -24 20 -427 l3 -428 560 -3 c308 -1 570 0 583
3 l22 5 0 421 c0 347 2 421 14 425 7 3 90 -39 182 -92 93 -53 183 -105 201
-115 17 -10 50 -29 72 -43 22 -15 42 -26 45 -26 2 0 54 -29 115 -65 62 -36
117 -65 124 -65 10 0 162 254 290 484 16 28 32 56 37 61 4 6 19 30 32 55 14
25 69 120 122 212 53 92 96 173 96 181 0 10 -283 183 -415 253 -37 19 -240
137 -278 161 -46 29 -41 38 37 81 28 16 80 46 116 67 36 20 81 46 100 57 19
11 107 62 195 113 88 50 171 98 185 106 40 23 60 41 60 56 0 8 -16 39 -35 69
-19 30 -35 56 -35 58 0 2 -37 66 -81 142 -99 169 -263 452 -297 514 -13 25
-28 50 -32 55 -4 6 -20 33 -36 60 -43 78 -48 85 -62 85 -8 0 -93 -46 -191
-102 -97 -55 -190 -109 -207 -119 -17 -9 -99 -56 -183 -105 -96 -55 -155 -84
-161 -78 -6 6 -11 180 -12 429 l-3 420 -576 3 c-316 1 -579 -1 -582 -5z m1107
-59 c3 -9 6 -208 6 -444 0 -321 3 -429 12 -432 6 -2 50 18 97 45 47 27 102 59
121 70 19 10 64 36 100 57 36 21 81 47 100 58 19 11 64 37 100 57 158 92 254
144 261 139 6 -4 91 -145 147 -246 12 -20 32 -55 46 -77 15 -22 26 -43 26 -46
0 -2 16 -29 35 -59 19 -30 35 -58 35 -61 0 -4 8 -19 19 -33 10 -15 29 -47 43
-72 14 -25 57 -101 97 -169 39 -68 71 -131 71 -141 0 -17 -40 -43 -195 -130
-22 -12 -44 -26 -50 -30 -5 -4 -30 -19 -55 -32 -25 -14 -121 -69 -215 -123
-93 -54 -182 -105 -196 -112 -15 -7 -32 -19 -38 -27 -14 -17 -12 -19 119 -93
417 -238 607 -348 622 -360 9 -8 14 -22 11 -30 -4 -9 -89 -158 -190 -331 -100
-173 -183 -316 -183 -318 0 -2 -16 -28 -35 -58 -19 -30 -35 -57 -35 -60 0 -17
-75 -126 -87 -126 -8 0 -94 46 -192 102 -97 55 -189 109 -206 118 -16 10 -106
61 -198 114 -92 53 -172 94 -177 91 -6 -4 -10 -169 -10 -435 0 -235 -3 -435
-6 -444 -5 -14 -61 -16 -519 -16 -282 0 -520 3 -529 6 -14 5 -16 54 -16 444 0
278 -4 441 -10 445 -5 3 -64 -26 -131 -64 -67 -39 -124 -71 -126 -71 -3 0 -17
-8 -31 -19 -15 -10 -48 -30 -74 -44 -26 -14 -126 -72 -222 -127 -114 -66 -181
-100 -193 -96 -10 3 -40 45 -67 93 -27 49 -64 113 -81 143 -88 148 -354 609
-368 636 -18 35 -15 40 43 73 48 27 355 204 415 239 33 19 76 43 95 54 140 81
190 111 195 117 6 11 -19 32 -75 63 -55 30 -81 45 -290 166 -91 52 -181 104
-200 115 -127 71 -191 110 -195 117 -3 5 15 43 40 85 25 42 45 78 45 81 0 2
16 28 35 58 19 30 35 58 35 61 0 3 11 22 24 43 13 20 94 160 181 310 86 149
161 274 165 277 5 3 24 -3 42 -14 18 -10 60 -34 93 -53 33 -19 152 -88 265
-153 113 -65 232 -134 265 -153 95 -55 108 -61 117 -56 4 3 8 202 8 443 0 241
3 441 7 444 3 4 241 7 529 7 467 0 523 -2 528 -16z"/>
<path id ="oversens3" d="M1472 3063 l3 -688 453 -3 452 -2 0 690 0 690 -455 0 -455 0 2 -687z"/>
<path id="noStructureInfo" d="M611 3234 c-12 -19 -21 -37 -21 -39 0 -2 -13 -26 -29 -53 -37 -64
-75 -132 -121 -217 -46 -86 -87 -160 -110 -200 -9 -16 -34 -61 -54 -98 -20
-37 -45 -83 -56 -102 l-19 -34 27 -19 c15 -11 59 -37 97 -59 39 -22 187 -109
330 -193 143 -84 281 -164 306 -178 l46 -25 39 29 c21 16 41 31 44 34 3 4 23
19 45 35 22 17 42 32 45 35 3 3 44 34 92 70 47 36 89 74 92 85 3 11 6 131 6
266 l0 245 -28 27 c-15 15 -31 27 -35 27 -4 0 -38 20 -77 45 -39 25 -73 45
-77 45 -3 0 -21 11 -39 25 -18 14 -35 25 -38 25 -6 0 -155 92 -213 131 -23 16
-44 29 -47 29 -3 0 -41 23 -84 50 -43 28 -84 50 -89 50 -6 0 -20 -16 -32 -36z"/>
<path id="medCondition" d="M3155 3237 c-28 -19 -72 -46 -98 -61 -26 -14 -60 -35 -75 -45 -46
-31 -192 -121 -198 -121 -3 0 -20 -11 -38 -25 -18 -14 -36 -25 -39 -25 -4 0
-38 -20 -77 -45 -39 -25 -74 -45 -78 -45 -5 0 -18 -10 -30 -23 -21 -23 -22
-30 -22 -290 l0 -267 93 -72 c50 -41 110 -87 132 -103 22 -16 46 -35 52 -41 7
-7 28 -22 47 -34 l35 -21 43 24 c50 29 281 162 320 186 95 57 254 150 313 184
104 59 127 77 117 90 -5 7 -33 57 -62 112 -30 55 -62 116 -73 135 -11 19 -30
53 -42 75 -12 22 -32 57 -43 77 -12 21 -38 68 -58 105 -20 37 -48 88 -62 113
-14 25 -39 69 -55 98 -15 28 -34 52 -40 52 -7 0 -35 -15 -62 -33z"/>
<path id ="oversens2-1" class="oversens2" d="M1477 2263 c-4 -3 -7 -60 -7 -125 l0 -118 455 0 455 0 0 125 0 125
-448 0 c-247 0 -452 -3 -455 -7z"/>
<path id="infection" d="M965 1947 c-11 -7 -43 -27 -72 -44 -30 -18 -58 -33 -63 -33 -6 0 -10
-4 -10 -10 0 -5 -8 -10 -19 -10 -10 0 -24 -6 -30 -13 -6 -8 -32 -25 -58 -38
-27 -13 -50 -26 -53 -30 -3 -3 -25 -17 -50 -31 -25 -14 -79 -45 -120 -70 -41
-25 -95 -56 -120 -70 -96 -54 -140 -83 -140 -94 0 -6 20 -42 45 -80 24 -38 45
-72 45 -76 0 -4 20 -39 45 -77 25 -38 45 -73 45 -77 0 -4 11 -22 25 -40 14
-18 25 -36 25 -41 0 -4 9 -19 20 -33 11 -14 20 -33 20 -42 0 -9 6 -21 12 -25
7 -4 19 -18 26 -30 6 -13 18 -33 25 -45 6 -13 15 -25 19 -28 3 -3 22 -34 41
-70 43 -80 50 -80 156 -7 101 69 113 77 134 83 9 4 17 10 17 15 0 5 5 9 11 9
6 0 32 15 58 33 25 18 60 39 76 47 17 8 35 20 42 25 7 6 19 16 27 23 8 6 18
12 21 12 3 0 34 19 68 42 34 24 71 48 82 53 19 10 20 22 23 272 l2 261 -32 23
c-18 13 -37 29 -41 36 -4 7 -15 13 -22 13 -8 0 -15 5 -15 10 0 6 -6 10 -13 10
-7 0 -24 11 -39 25 -15 14 -29 25 -32 25 -3 0 -38 25 -78 55 -40 30 -75 55
-78 54 -3 0 -14 -6 -25 -12z"/>
<path id="careDeviation" d="M2770 1878 c-63 -45 -116 -85 -118 -90 -2 -4 -10 -8 -18 -8 -8 0 -17
-7 -20 -15 -4 -8 -12 -15 -19 -15 -6 0 -24 -11 -39 -25 l-26 -24 2 -257 3
-257 47 -26 c25 -14 55 -34 65 -44 11 -9 23 -17 27 -17 9 0 90 -53 94 -62 2
-5 12 -8 23 -8 10 0 19 -4 19 -10 0 -5 6 -10 13 -10 7 0 23 -10 37 -23 14 -13
40 -30 58 -38 17 -7 32 -17 32 -21 0 -5 6 -8 13 -8 7 0 24 -11 39 -25 15 -14
32 -25 38 -25 6 0 44 -23 85 -52 74 -51 75 -52 93 -32 10 10 25 35 34 54 9 19
26 45 37 57 12 12 21 27 21 33 0 12 20 49 38 68 6 7 12 19 12 26 0 7 8 21 18
32 9 10 24 33 32 49 8 17 25 44 37 61 13 17 23 36 23 41 0 6 20 40 45 76 25
37 45 72 45 79 0 7 11 25 25 40 14 15 25 33 25 40 0 7 7 22 15 32 23 30 18 45
-20 63 -19 9 -35 20 -35 23 0 3 -16 12 -35 20 -19 8 -35 17 -35 21 0 4 -8 9
-17 13 -10 3 -36 17 -58 31 -22 14 -47 28 -55 32 -8 4 -29 17 -46 30 -17 13
-37 23 -45 23 -8 0 -26 11 -41 25 -15 14 -34 25 -42 25 -8 0 -17 4 -20 9 -3 5
-25 18 -50 29 -24 12 -50 27 -57 34 -8 7 -27 20 -44 28 -16 8 -54 29 -83 47
-29 18 -53 33 -55 33 -1 0 -54 -37 -117 -82z"/>
<path id="oversens2-2" class="oversens2" d="M1477 1893 c-4 -3 -7 -59 -7 -124 0 -113 1 -117 23 -123 29 -8 851
-8 871 0 13 5 16 26 16 130 l0 124 -448 0 c-247 0 -452 -3 -455 -7z"/>
<path id="oversens2-3" class="oversens2" d="M1474 1517 c-2 -7 -3 -65 -2 -128 l3 -114 453 -3 452 -2 0 130 0 130
-450 0 c-363 0 -452 -3 -456 -13z"/>
<path id="oversens1" d="M1810 1153 c-222 -82 -348 -272 -325 -493 29 -273 302 -457 569 -383
63 17 175 83 212 124 74 82 124 210 124 315 0 149 -108 330 -234 393 -93 46
-116 51 -225 50 -58 0 -113 -3 -121 -6z"/>
</g>
</svg>
