<?xml version="1.0" encoding="utf-8"?>
<svg version="1.1" xmlns:xlink="http://www.w3.org/1999/xlink" width="25px" height="21px" xmlns="http://www.w3.org/2000/svg">
  <g transform="matrix(1 0 0 1 -15 -10 )">
    <path d="M 7.253502155172415 18.7373046875  C 7.590247844827585 18.3955078125  7.758620689655173 17.983072916666664  7.758620689655173 17.5  C 7.758620689655173 17.016927083333336  7.590247844827585 16.6044921875  7.253502155172415 16.2626953125  C 6.916756465517242 15.9208984375  6.510416666666667 15.75  6.0344827586206895 15.75  C 5.558548850574714 15.75  5.152209051724139 15.9208984375  4.815463362068965 16.2626953125  C 4.478717672413793 16.6044921875  4.310344827586207 17.016927083333336  4.310344827586207 17.5  C 4.310344827586207 17.983072916666664  4.478717672413793 18.3955078125  4.815463362068965 18.7373046875  C 5.152209051724139 19.0791015625  5.558548850574714 19.25  6.0344827586206895 19.25  C 6.510416666666667 19.25  6.916756465517242 19.0791015625  7.253502155172415 18.7373046875  Z M 2.586206896551724 10.08984375  L 2.586206896551724 10.5  L 7.758620689655173 10.5  L 7.758620689655173 7.000000000000001  L 5.630387931034483 7.000000000000001  C 5.504669540229886 7.018229166666666  5.405890804597702 7.059244791666666  5.334051724137931 7.123046875000001  L 2.7074353448275863 9.7890625  C 2.644576149425288 9.8984375  2.604166666666667 9.998697916666666  2.586206896551724 10.08984375  Z M 19.322467672413794 18.7373046875  C 19.659213362068968 18.3955078125  19.82758620689655 17.983072916666664  19.82758620689655 17.5  C 19.82758620689655 17.016927083333336  19.659213362068968 16.6044921875  19.322467672413794 16.2626953125  C 18.985721982758623 15.9208984375  18.57938218390805 15.75  18.103448275862068 15.75  C 17.627514367816094 15.75  17.221174568965516 15.9208984375  16.884428879310345 16.2626953125  C 16.54768318965517 16.6044921875  16.379310344827587 17.016927083333336  16.379310344827587 17.5  C 16.379310344827587 17.983072916666664  16.54768318965517 18.3955078125  16.884428879310345 18.7373046875  C 17.221174568965516 19.0791015625  17.627514367816094 19.25  18.103448275862068 19.25  C 18.57938218390805 19.25  18.985721982758623 19.0791015625  19.322467672413794 18.7373046875  Z M 21.43049568965517 8.626953125  C 21.511314655172413 8.544921875  21.551724137931032 8.440104166666666  21.551724137931032 8.3125  L 21.551724137931032 5.687500000000001  C 21.551724137931032 5.55989583333333  21.511314655172413 5.455078125  21.43049568965517 5.373046875  C 21.349676724137932 5.291015625  21.246408045977013 5.25  21.120689655172413 5.25  L 18.103448275862068 5.25  L 18.103448275862068 2.187499999999999  C 18.103448275862068 2.0598958333333313  18.06303879310345 1.9550781250000009  17.982219827586206 1.8730468750000009  C 17.901400862068968 1.7910156250000009  17.79813218390805 1.7500000000000009  17.67241379310345 1.7500000000000009  L 15.086206896551724 1.7500000000000009  C 14.960488505747128 1.7500000000000009  14.857219827586206 1.7910156250000009  14.776400862068966 1.8730468750000009  C 14.695581896551724 1.9550781250000009  14.655172413793101 2.0598958333333313  14.655172413793101 2.187499999999999  L 14.655172413793101 5.25  L 11.637931034482758 5.25  C 11.512212643678161 5.25  11.408943965517242 5.291015625  11.328125 5.373046875  C 11.247306034482758 5.455078125  11.206896551724139 5.55989583333333  11.206896551724139 5.687500000000001  L 11.206896551724139 8.3125  C 11.206896551724139 8.440104166666666  11.247306034482758 8.544921875  11.328125 8.626953125  C 11.408943965517242 8.708984375  11.512212643678161 8.75  11.637931034482758 8.75  L 14.655172413793101 8.75  L 14.655172413793101 11.8125  C 14.655172413793101 11.940104166666666  14.695581896551724 12.044921874999998  14.776400862068966 12.126953124999998  C 14.857219827586206 12.208984374999998  14.960488505747128 12.249999999999998  15.086206896551724 12.249999999999998  L 17.67241379310345 12.249999999999998  C 17.79813218390805 12.249999999999998  17.901400862068968 12.208984374999998  17.982219827586206 12.126953124999998  C 18.06303879310345 12.044921874999998  18.103448275862068 11.940104166666666  18.103448275862068 11.8125  L 18.103448275862068 8.75  L 21.120689655172413 8.75  C 21.246408045977013 8.75  21.349676724137932 8.708984375  21.43049568965517 8.626953125  Z M 24.744073275862068 0.2597656249999992  C 24.914691091954026 0.4329427083333305  25.000000000000007 0.6380208333333305  25 0.8749999999999992  L 25 16.625  C 25.000000000000007 16.861979166666664  24.914691091954026 17.067057291666664  24.744073275862068 17.240234375  C 24.573455459770116 17.413411458333336  24.371408045977013 17.5  24.137931034482758 17.5  L 21.551724137931032 17.5  C 21.551724137931032 18.466145833333332  21.21497844827586 19.291015625  20.541487068965516 19.974609375  C 19.86799568965517 20.658203125  19.055316091954026 21  18.103448275862068 21  C 17.151580459770116 21  16.338900862068968 20.658203125  15.665409482758621 19.974609375  C 14.991918103448276 19.291015625  14.655172413793101 18.466145833333332  14.655172413793101 17.5  L 9.482758620689655 17.5  C 9.482758620689655 18.466145833333332  9.146012931034484 19.291015625  8.472521551724139 19.974609375  C 7.799030172413793 20.658203125  6.986350574712645 21  6.0344827586206895 21  C 5.082614942528736 21  4.269935344827586 20.658203125  3.5964439655172415 19.974609375  C 2.9229525862068964 19.291015625  2.586206896551724 18.466145833333332  2.586206896551724 17.5  L 0.8620689655172413 17.5  C 0.6285919540229887 17.5  0.42654454022988525 17.413411458333336  0.25592672413793105 17.240234375  C 0.08530890804597714 17.067057291666664  0 16.861979166666664  0 16.625  C 0 16.388020833333336  0.08530890804597714 16.182942708333336  0.25592672413793105 16.009765625  C 0.42654454022988525 15.836588541666666  0.6285919540229887 15.75  0.8620689655172413 15.75  L 0.8620689655172413 10.0625  C 0.8620689655172413 9.825520833333332  0.9204382183908048 9.561197916666666  1.037176724137931 9.26953125  C 1.1539152298850577 8.977864583333332  1.2975933908045978 8.745442708333334  1.4682112068965518 8.572265625  L 4.135237068965517 5.865234375  C 4.305854885057473 5.692057291666666  4.53484195402299 5.546223958333331  4.822198275862069 5.427734374999999  C 5.10955459770115 5.309244791666665  5.369971264367816 5.25  5.603448275862069 5.25  L 7.758620689655173 5.25  L 7.758620689655173 0.8749999999999992  C 7.758620689655173 0.6380208333333305  7.843929597701151 0.4329427083333305  8.014547413793103 0.2597656249999992  C 8.185165229885058 0.08658854166666563  8.387212643678161 0  8.620689655172415 0  L 24.137931034482758 0  C 24.371408045977013 0  24.573455459770116 0.08658854166666563  24.744073275862068 0.2597656249999992  Z " fill-rule="nonzero" fill="#333333" stroke="none" transform="matrix(1 0 0 1 15 10 )" />
  </g>
</svg>