<?xml version="1.0" encoding="utf-8"?>
<svg version="1.1" xmlns:xlink="http://www.w3.org/1999/xlink" width="30px" height="25px" xmlns="http://www.w3.org/2000/svg">
  <g transform="matrix(1 0 0 1 -420 -221 )">
    <path d="M 21.27790178571429 16.520182291666668  C 21.37834821428571 16.422526041666668  21.42857142857143 16.297743055555554  21.42857142857143 16.145833333333332  L 21.42857142857143 13.020833333333332  C 21.42857142857143 12.86892361111111  21.37834821428571 12.744140625  21.27790178571429 12.646484375  C 21.177455357142858 12.548828125  21.049107142857146 12.5  20.892857142857142 12.5  L 17.142857142857142 12.5  L 17.142857142857142 8.854166666666666  C 17.142857142857142 8.702256944444445  17.09263392857143 8.577473958333334  16.9921875 8.479817708333334  C 16.89174107142857 8.382161458333334  16.763392857142858 8.333333333333334  16.607142857142858 8.333333333333334  L 13.392857142857144 8.333333333333334  C 13.236607142857144 8.333333333333334  13.10825892857143 8.382161458333334  13.0078125 8.479817708333334  C 12.907366071428571 8.577473958333334  12.857142857142856 8.702256944444445  12.857142857142856 8.854166666666666  L 12.857142857142856 12.5  L 9.107142857142856 12.5  C 8.95089285714286 12.5  8.822544642857144 12.548828125  8.722098214285715 12.646484375  C 8.621651785714285 12.744140625  8.571428571428571 12.86892361111111  8.571428571428571 13.020833333333332  L 8.571428571428571 16.145833333333332  C 8.571428571428571 16.297743055555554  8.621651785714285 16.422526041666668  8.722098214285715 16.520182291666668  C 8.822544642857144 16.617838541666668  8.95089285714286 16.666666666666668  9.107142857142856 16.666666666666668  L 12.857142857142856 16.666666666666668  L 12.857142857142856 20.3125  C 12.857142857142856 20.46440972222222  12.907366071428571 20.589192708333336  13.0078125 20.686848958333336  C 13.10825892857143 20.784505208333336  13.236607142857144 20.833333333333336  13.392857142857144 20.833333333333336  L 16.607142857142858 20.833333333333336  C 16.763392857142858 20.833333333333336  16.89174107142857 20.784505208333336  16.9921875 20.686848958333336  C 17.09263392857143 20.589192708333336  17.142857142857142 20.46440972222222  17.142857142857142 20.3125  L 17.142857142857142 16.666666666666668  L 20.892857142857142 16.666666666666668  C 21.049107142857146 16.666666666666668  21.177455357142858 16.617838541666668  21.27790178571429 16.520182291666668  Z M 10.714285714285715 2.0833333333333344  L 10.714285714285715 4.166666666666666  L 19.28571428571429 4.166666666666666  L 19.28571428571429 2.0833333333333344  L 10.714285714285715 2.0833333333333344  Z M 3.75 4.166666666666666  L 4.285714285714286 4.166666666666666  L 4.285714285714286 25  L 3.75 25  C 2.723214285714286 25  1.8415178571428574 24.641927083333336  1.1049107142857144 23.92578125  C 0.3683035714285714 23.209635416666664  0 22.352430555555554  0 21.354166666666664  L 0 7.8125  C 0 6.814236111111108  0.3683035714285714 5.95703125  1.1049107142857144 5.240885416666666  C 1.8415178571428574 4.524739583333334  2.723214285714286 4.166666666666666  3.75 4.166666666666666  Z M 21.42857142857143 4.166666666666666  L 24 4.166666666666666  L 24 25  L 6 25  L 6 4.166666666666666  L 8.571428571428571 4.166666666666666  L 8.571428571428571 1.5625  C 8.571428571428571 1.128472222222221  8.727678571428573 0.7595486111111077  9.040178571428571 0.45572916666666574  C 9.352678571428573 0.151909722222221  9.732142857142858 0  10.178571428571429 0  L 19.82142857142857 0  C 20.267857142857146 0  20.64732142857143 0.151909722222221  20.95982142857143 0.45572916666666574  C 21.27232142857143 0.7595486111111077  21.42857142857143 1.128472222222221  21.42857142857143 1.5625  L 21.42857142857143 4.166666666666666  Z M 28.89508928571429 5.240885416666666  C 29.63169642857143 5.95703125  30 6.814236111111108  30 7.8125  L 30 21.354166666666664  C 30 22.352430555555554  29.63169642857143 23.209635416666664  28.89508928571429 23.92578125  C 28.158482142857142 24.641927083333336  27.27678571428572 25  26.25 25  L 25.71428571428571 25  L 25.71428571428571 4.166666666666666  L 26.25 4.166666666666666  C 27.27678571428572 4.166666666666666  28.158482142857142 4.524739583333334  28.89508928571429 5.240885416666666  Z " fill-rule="nonzero" fill="#333333" stroke="none" transform="matrix(1 0 0 1 420 221 )" />
  </g>
</svg>