<?xml version="1.0" encoding="utf-8"?>
<svg version="1.1" xmlns:xlink="http://www.w3.org/1999/xlink" width="31px" height="25px" xmlns="http://www.w3.org/2000/svg">
  <g transform="matrix(1 0 0 1 -847 -219 )">
    <path d="M 26.543990086741015 14.282930631332814  C 26.556794712928543 14.308911405559884  26.563197026022305 14.347882566900495  26.563197026022305 14.399844115354638  L 26.563197026022305 23.752922837100545  C 26.563197026022305 24.09067290205248  26.441553077240812 24.38295661210704  26.19826517967782 24.629773967264224  C 25.954977282114832 24.876591322421408  25.6668731928955 25  25.333952912019825 25  L 17.958488228004956 25  L 17.958488228004956 17.517537022603275  L 13.041511771995044 17.517537022603275  L 13.041511771995044 25  L 5.666047087980173 25  C 5.333126807104503 25  5.045022717885172 24.876591322421408  4.801734820322181 24.629773967264224  C 4.558446922759191 24.38295661210704  4.436802973977695 24.09067290205248  4.436802973977695 23.752922837100545  L 4.436802973977695 14.399844115354638  C 4.436802973977695 14.3868537282411  4.440004130524577 14.367368147570797  4.44640644361834 14.341387373343725  C 4.452808756712103 14.315406599116653  4.456009913258984 14.29592101844635  4.456009913258984 14.282930631332814  L 15.5 5.046765393608729  L 26.543990086741015 14.282930631332814  Z M 30.98079306071871 12.597427903351521  C 30.993597686906238 12.772798129384256  30.9487814952499 12.925435177968303  30.84634448574969 13.055339049103665  L 29.65551425030979 14.497272018706159  C 29.553077240809586 14.614185502727983  29.418628665840565 14.68563263185243  29.252168525402727 14.711613406079502  L 29.194547707558858 14.711613406079502  C 29.028087567121027 14.711613406079502  28.893638992152006 14.666147051182124  28.791201982651796 14.57521434138737  L 15.5 3.33203429462198  L 2.208798017348203 14.57521434138737  C 2.0551425030978936 14.679137438295658  1.9014869888475838 14.724603793193037  1.7478314745972738 14.711613406079502  C 1.5813713341594384 14.68563263185243  1.4469227591904175 14.614185502727983  1.3444857496902105 14.497272018706159  L 0.1536555142503098 13.055339049103665  C 0.05121850475010328 12.925435177968303  0.006402313093762954 12.772798129384256  0.019206939281288724 12.597427903351521  C 0.03201156546881463 12.422057677318785  0.10243700950020657 12.282411015848272  0.23048327137546468 12.178487918939984  L 14.040272614622056 0.5066250974279041  C 14.450020652622884 0.16887503247596525  14.936596447748865 0  15.5 0  C 16.06340355225114 0  16.549979347377118 0.16887503247596525  16.959727385377942 0.5066250974279041  L 21.646220570012392 4.481683554169913  L 21.646220570012392 0.681995323460638  C 21.646220570012392 0.5001299038711327  21.703841387856258 0.35074045206547055  21.81908302354399 0.2338269680436489  C 21.934324659231724 0.11691348402182444  22.08157786038827 0.05845674201091222  22.26084262701363 0.05845674201091222  L 25.948574969021067 0.05845674201091222  C 26.12783973564643 0.05845674201091222  26.275092936802974 0.11691348402182444  26.390334572490705 0.2338269680436489  C 26.50557620817844 0.35074045206547055  26.563197026022305 0.5001299038711327  26.563197026022305 0.681995323460638  L 26.563197026022305 8.63211223694466  L 30.769516728624534 12.178487918939984  C 30.897562990499797 12.282411015848272  30.96798843453119 12.422057677318785  30.98079306071871 12.597427903351521  Z " fill-rule="nonzero" fill="#333333" stroke="none" transform="matrix(1 0 0 1 847 219 )" />
  </g>
</svg>