<?xml version="1.0" encoding="utf-8"?>
<svg version="1.1" xmlns:xlink="http://www.w3.org/1999/xlink" width="25px" height="25px" xmlns="http://www.w3.org/2000/svg">
  <g transform="matrix(1 0 0 1 -350 -224 )">
    <path d="M 24.4140625 20.10653409090909  C 24.8046875 20.48058712121212  25 20.89962121212121  25 21.363636363636363  C 25 21.960227272727273  24.636008522727273 22.497632575757574  23.908025568181817 22.975852272727273  C 23.180042613636363 23.454071969696972  22.20939867424243 23.8375946969697  20.99609375 24.126420454545457  C 19.782788825757578 24.415246212121215  18.45111268939394 24.633049242424242  17.00106534090909 24.779829545454547  C 15.551017992424242 24.926609848484848  14.050662878787879 25  12.5 25  C 10.949337121212123 25  9.448982007575758 24.926609848484848  7.998934659090909 24.779829545454547  C 6.5488873106060606 24.633049242424242  5.217211174242425 24.415246212121215  4.00390625 24.126420454545457  C 2.790601325757576 23.8375946969697  1.8199573863636367 23.454071969696972  1.0919744318181819 22.975852272727273  C 0.36399147727272724 22.497632575757574  0 21.960227272727273  0 21.363636363636363  C 0 20.89962121212121  0.1953125 20.48058712121212  0.5859375 20.10653409090909  C 0.9765625000000002 19.732481060606062  1.5151515151515154 19.417613636363637  2.2017045454545454 19.161931818181817  C 2.888257575757576 18.90625  3.586647727272727 18.695549242424242  4.296875 18.529829545454547  C 5.0071022727272725 18.364109848484848  5.782433712121213 18.22443181818182  6.6228693181818175 18.110795454545453  C 6.930634469696971 18.063446969696965  7.21472537878788 18.113162878787875  7.475142045454546 18.259943181818183  C 7.735558712121213 18.406723484848484  7.889441287878789 18.603219696969695  7.9367897727272725 18.849431818181817  C 7.99597537878788 19.095643939393938  7.933830492424243 19.322916666666664  7.750355113636363 19.53125  C 7.566879734848484 19.739583333333336  7.321259469696971 19.86268939393939  7.0134943181818175 19.900568181818183  C 6.326941287878789 19.995265151515152  5.699573863636364 20.10653409090909  5.131392045454546 20.234375  C 4.5632102272727275 20.362215909090907  4.110440340909091 20.482954545454547  3.7730823863636362 20.59659090909091  C 3.4357244318181817 20.710227272727273  3.148674242424242 20.82149621212121  2.911931818181818 20.930397727272727  C 2.6751893939393945 21.039299242424242  2.512428977272727 21.13162878787879  2.423650568181818 21.207386363636363  C 2.334872159090909 21.283143939393938  2.2845643939393945 21.339962121212118  2.272727272727273 21.37784090909091  C 2.3082386363636362 21.482007575757574  2.468039772727273 21.607481060606062  2.752130681818182 21.754261363636363  C 3.036221590909091 21.901041666666664  3.468276515151515 22.057291666666664  4.048295454545454 22.223011363636363  C 4.6283143939393945 22.388731060606062  5.303030303030303 22.542613636363637  6.072443181818182 22.68465909090909  C 6.8418560606060606 22.826704545454547  7.791785037878789 22.945075757575754  8.922230113636363 23.039772727272727  C 10.052675189393941 23.1344696969697  11.245265151515152 23.18181818181818  12.5 23.18181818181818  C 13.754734848484851 23.18181818181818  14.947324810606064 23.1344696969697  16.077769886363637 23.039772727272727  C 17.20821496212121 22.945075757575754  18.15814393939394 22.826704545454547  18.927556818181817 22.68465909090909  C 19.6969696969697 22.542613636363637  20.37168560606061 22.386363636363637  20.951704545454543 22.215909090909093  C 21.531723484848484 22.045454545454547  21.96377840909091 21.88683712121212  22.247869318181817 21.74005681818182  C 22.531960227272727 21.593276515151516  22.691761363636363 21.463068181818183  22.727272727272727 21.34943181818182  C 22.71543560606061 21.311553030303028  22.66512784090909 21.2594696969697  22.576349431818183 21.193181818181817  C 22.487571022727273 21.126893939393938  22.32481060606061 21.03693181818182  22.088068181818183 20.923295454545453  C 21.85132575757576 20.80965909090909  21.564275568181817 20.698390151515152  21.226917613636363 20.589488636363637  C 20.88955965909091 20.48058712121212  20.436789772727273 20.362215909090907  19.868607954545457 20.234375  C 19.300426136363637 20.10653409090909  18.67305871212121 19.995265151515152  17.986505681818183 19.900568181818183  C 17.67874053030303 19.86268939393939  17.433120265151516 19.739583333333336  17.249644886363637 19.53125  C 17.06616950757576 19.322916666666664  17.00402462121212 19.095643939393938  17.063210227272727 18.849431818181817  C 17.11055871212121 18.603219696969695  17.26444128787879 18.406723484848484  17.524857954545457 18.259943181818183  C 17.78527462121212 18.113162878787875  18.06936553030303 18.063446969696965  18.377130681818183 18.110795454545453  C 19.21756628787879 18.22443181818182  19.992897727272727 18.364109848484848  20.703125 18.529829545454547  C 21.413352272727273 18.695549242424242  22.11174242424243 18.90625  22.798295454545457 19.161931818181817  C 23.484848484848484 19.417613636363637  24.0234375 19.732481060606062  24.4140625 20.10653409090909  Z M 17.515980113636363 7.350852272727273  C 17.95987215909091 7.705965909090909  18.181818181818183 8.134469696969695  18.181818181818183 8.636363636363637  L 18.181818181818183 14.090909090909093  C 18.181818181818183 14.337121212121213  18.06936553030303 14.550189393939394  17.844460227272727 14.730113636363637  C 17.619554924242426 14.910037878787877  17.3532196969697 15  17.045454545454543 15  L 15.909090909090908 15  L 15.909090909090908 20.454545454545453  C 15.909090909090908 20.700757575757574  15.79663825757576 20.913825757575758  15.571732954545455 21.09375  C 15.346827651515154 21.273674242424242  15.080492424242427 21.363636363636363  14.772727272727273 21.363636363636363  L 10.227272727272728 21.363636363636363  C 9.919507575757578 21.363636363636363  9.65317234848485 21.273674242424242  9.428267045454545 21.09375  C 9.203361742424242 20.913825757575758  9.090909090909092 20.700757575757574  9.090909090909092 20.454545454545453  L 9.090909090909092 15  L 7.954545454545454 15  C 7.646780303030304 15  7.380445075757576 14.910037878787877  7.1555397727272725 14.730113636363637  C 6.93063446969697 14.550189393939394  6.8181818181818175 14.337121212121213  6.8181818181818175 14.090909090909093  L 6.8181818181818175 8.636363636363637  C 6.8181818181818175 8.134469696969695  7.040127840909091 7.705965909090909  7.484019886363637 7.350852272727273  C 7.9279119318181825 6.995738636363635  8.463541666666668 6.8181818181818175  9.090909090909092 6.8181818181818175  L 15.909090909090908 6.8181818181818175  C 16.536458333333336 6.8181818181818175  17.072088068181817 6.995738636363635  17.515980113636363 7.350852272727273  Z M 15.314275568181818 0.9303977272727276  C 16.08960700757576 1.5506628787878758  16.477272727272727 2.3011363636363633  16.477272727272727 3.181818181818183  C 16.477272727272727 4.062499999999999  16.08960700757576 4.812973484848484  15.314275568181818 5.433238636363635  C 14.538944128787879 6.053503787878786  13.600852272727273 6.363636363636363  12.5 6.363636363636363  C 11.399147727272728 6.363636363636363  10.461055871212123 6.053503787878786  9.685724431818182 5.433238636363635  C 8.910392992424242 4.812973484848484  8.522727272727273 4.062499999999999  8.522727272727272 3.181818181818183  C 8.522727272727273 2.3011363636363633  8.910392992424242 1.5506628787878758  9.685724431818182 0.9303977272727276  C 10.461055871212123 0.310132575757574  11.399147727272728 0  12.5 0  C 13.600852272727273 0  14.538944128787879 0.310132575757574  15.314275568181818 0.9303977272727276  Z " fill-rule="nonzero" fill="#333333" stroke="none" transform="matrix(1 0 0 1 350 224 )" />
  </g>
</svg>