<?xml version="1.0" encoding="utf-8"?>
<svg version="1.1" xmlns:xlink="http://www.w3.org/1999/xlink" width="30px" height="24px" xmlns="http://www.w3.org/2000/svg">
  <g transform="matrix(1 0 0 1 -720 -167 )">
    <path d="M 24.634486607142858 0  C 26.11328125 0  27.377232142857146 0.4196428571428603  28.42633928571429 1.2589285714285703  C 29.47544642857143 2.098214285714283  30 3.109374999999999  30 4.2924107142857135  C 30 5.475446428571428  29.47544642857143 6.482142857142857  28.42633928571429 7.3125  L 24.65959821428571 10.299107142857142  L 26.400669642857142 11.691964285714286  C 26.51227678571429 11.78125  26.56808035714286 11.883928571428571  26.568080357142858 12  C 26.56808035714286 12.116071428571429  26.51227678571429 12.218749999999998  26.400669642857142 12.308035714285714  L 22.885044642857142 15.120535714285714  C 22.7734375 15.209821428571427  22.645089285714285 15.254464285714286  22.5 15.254464285714286  C 22.35491071428572 15.254464285714286  22.226562500000004 15.209821428571427  22.114955357142858 15.120535714285714  L 20.357142857142858 13.714285714285714  L 10.262276785714285 21.79017857142857  C 9.849330357142858 22.120535714285715  9.347098214285715 22.285714285714285  8.755580357142856 22.285714285714285  L 5.357142857142858 22.285714285714285  L 1.0714285714285714 24  L 0 23.142857142857142  L 2.142857142857143 19.714285714285715  L 2.142857142857143 16.995535714285715  C 2.142857142857143 16.522321428571427  2.349330357142857 16.12053571428571  2.762276785714286 15.790178571428573  L 12.857142857142856 7.7142857142857135  L 11.099330357142856 6.3080357142857135  C 10.987723214285715 6.218749999999998  10.931919642857144 6.116071428571426  10.931919642857144 6  C 10.931919642857144 5.883928571428571  10.987723214285715 5.781249999999999  11.099330357142856 5.6919642857142865  L 14.614955357142856 2.8794642857142865  C 14.7265625 2.790178571428571  14.854910714285715 2.7455357142857135  15 2.7455357142857135  C 15.145089285714286 2.7455357142857135  15.273437500000002 2.790178571428571  15.385044642857142 2.8794642857142865  L 17.12611607142857 4.27232142857143  L 20.859375 1.2589285714285703  C 21.89732142857143 0.4196428571428603  23.155691964285715 0  24.634486607142858 0  Z M 5.357142857142858 19.714285714285715  L 8.571428571428571 19.714285714285715  L 18.21428571428571 12  L 15 9.42857142857143  L 5.357142857142858 17.142857142857142  L 5.357142857142858 19.714285714285715  Z " fill-rule="nonzero" fill="#333333" stroke="none" transform="matrix(1 0 0 1 720 167 )" />
  </g>
</svg>