<?xml version="1.0" encoding="utf-8"?>
<svg version="1.1" xmlns:xlink="http://www.w3.org/1999/xlink" width="30px" height="25px" xmlns="http://www.w3.org/2000/svg">
  <g transform="matrix(1 0 0 1 -561 -221 )">
    <path d="M 24.634486607142858 0  C 26.11328125 0  27.377232142857146 0.4371279761904795  28.42633928571429 1.3113839285714275  C 29.47544642857143 2.185639880952378  30 3.2389322916666656  30 4.471261160714285  C 30 5.703590029761904  29.47544642857143 6.752232142857142  28.42633928571429 7.6171875  L 24.65959821428571 10.728236607142858  L 26.400669642857142 12.179129464285715  C 26.51227678571429 12.272135416666666  26.56808035714286 12.379092261904761  26.568080357142858 12.5  C 26.56808035714286 12.620907738095239  26.51227678571429 12.727864583333332  26.400669642857142 12.820870535714285  L 22.885044642857142 15.750558035714285  C 22.7734375 15.843563988095235  22.645089285714285 15.890066964285715  22.5 15.890066964285715  C 22.35491071428572 15.890066964285715  22.226562500000004 15.843563988095235  22.114955357142858 15.750558035714285  L 20.357142857142858 14.285714285714285  L 10.262276785714285 22.698102678571427  C 9.849330357142858 23.042224702380953  9.347098214285715 23.214285714285715  8.755580357142856 23.214285714285715  L 5.357142857142858 23.214285714285715  L 1.0714285714285714 25  L 0 24.107142857142858  L 2.142857142857143 20.535714285714285  L 2.142857142857143 17.703683035714285  C 2.142857142857143 17.210751488095237  2.349330357142857 16.79222470238095  2.762276785714286 16.44810267857143  L 12.857142857142856 8.035714285714285  L 11.099330357142856 6.570870535714285  C 10.987723214285715 6.477864583333331  10.931919642857144 6.3709077380952355  10.931919642857144 6.25  C 10.931919642857144 6.129092261904762  10.987723214285715 6.022135416666666  11.099330357142856 5.929129464285715  L 14.614955357142856 2.9994419642857153  C 14.7265625 2.906436011904762  14.854910714285715 2.8599330357142847  15 2.8599330357142847  C 15.145089285714286 2.8599330357142847  15.273437500000002 2.906436011904762  15.385044642857142 2.9994419642857153  L 17.12611607142857 4.450334821428573  L 20.859375 1.3113839285714275  C 21.89732142857143 0.4371279761904795  23.155691964285715 0  24.634486607142858 0  Z M 5.357142857142858 20.535714285714285  L 8.571428571428571 20.535714285714285  L 18.21428571428571 12.5  L 15 9.821428571428573  L 5.357142857142858 17.857142857142858  L 5.357142857142858 20.535714285714285  Z " fill-rule="nonzero" fill="#333333" stroke="none" transform="matrix(1 0 0 1 561 221 )" />
  </g>
</svg>