<?xml version="1.0" encoding="utf-8"?>
<svg version="1.1" xmlns:xlink="http://www.w3.org/1999/xlink" width="30px" height="24px" xmlns="http://www.w3.org/2000/svg">
  <g transform="matrix(1 0 0 1 -723 -222 )">
    <path d="M 20.03696498054476 13.636363636363637  L 18.747081712062254 11.291121330031842  L 15.84630350194551 16.56526353024407  C 15.496108949416351 17.20728687654757  14.480544747081717 17.186062964273084  14.159533073929948 16.53342766183233  L 10.838521400778212 9.831977361160254  L 9.087548638132306 13.636363636363637  L 3.5953307392996066 13.636363636363637  L 14.247081712062254 23.532012734347372  C 14.66147859922179 23.919349133356903  15.332684824902719 23.919349133356903  15.747081712062254 23.532012734347372  L 26.40466926070039 13.636363636363637  L 20.03696498054476 13.636363636363637  Z M 28.132295719844365 11.938450654403967  C 30.671206225680933 9.126282278033242  30.548638132295704 4.918641669614441  27.706225680933848 2.2762645914396815  L 27.566147859922182 2.1436151397240852  C 24.56031128404669 -0.6473293243721255  19.640077821011662 -0.6473293243721255  16.628404669260682 2.1436151397240852  L 15 3.6611248673505603  L 13.371595330739286 2.1489211177927143  C 10.365758754863828 -0.6473293243721255  5.439688715953309 -0.6473293243721255  2.4338521400778177 2.1489211177927143  L 2.2937743190661535 2.2762645914396815  C -0.5486381322957072 4.918641669614441  -0.6712062256809305 9.126282278033242  1.8677042801556354 11.938450654403967  L 7.844357976653702 11.938450654403967  L 9.93968871595331 7.364697559250089  C 10.254863813229587 6.680226388397593  11.317120622568087 6.664308454191707  11.655642023346298 7.343473646975605  L 15.05252918287939 14.204103289706392  L 17.912451361867696 9.009550760523531  C 18.256809338521396 8.38344534842589  19.237354085603112 8.38344534842589  19.581712062256816 9.009550760523531  L 21.192607003891055 11.938450654403967  L 28.132295719844365 11.938450654403967  Z " fill-rule="nonzero" fill="#333333" stroke="none" transform="matrix(1 0 0 1 723 222 )" />
  </g>
</svg>