<?xml version="1.0" encoding="utf-8"?>
<svg version="1.1" xmlns:xlink="http://www.w3.org/1999/xlink" width="32px" height="28px" xmlns="http://www.w3.org/2000/svg">
  <g transform="matrix(1 0 0 1 -620 -219 )">
    <path d="M 8.295454545454545 21.346354166666664  C 8.583333333333332 21.577256944444446  8.727272727272727 21.850694444444446  8.727272727272727 22.166666666666664  C 8.727272727272727 22.482638888888886  8.583333333333332 22.756076388888886  8.295454545454545 22.986979166666664  C 8.007575757575758 23.217881944444446  7.666666666666668 23.333333333333336  7.2727272727272725 23.333333333333336  C 6.878787878787879 23.333333333333336  6.537878787878788 23.217881944444446  6.25 22.986979166666664  C 5.962121212121213 22.756076388888886  5.818181818181818 22.482638888888886  5.818181818181818 22.166666666666664  C 5.818181818181818 21.850694444444446  5.962121212121213 21.577256944444446  6.25 21.346354166666664  C 6.537878787878788 21.115451388888886  6.878787878787879 21  7.2727272727272725 21  C 7.666666666666668 21  8.007575757575758 21.115451388888886  8.295454545454545 21.346354166666664  Z M 31.875 20.890625  C 31.958333333333336 21.65625  32 22.452256944444446  32 23.278645833333336  C 32 24.749131944444446  31.4469696969697 25.903645833333336  30.34090909090909 26.7421875  C 29.234848484848488 27.580729166666664  27.765151515151516 28  25.931818181818183 28  L 6.068181818181818 28  C 4.234848484848485 28  2.765151515151515 27.580729166666664  1.6590909090909092 26.7421875  C 0.553030303030303 25.903645833333336  0 24.749131944444446  0 23.278645833333336  C 0 22.452256944444446  0.041666666666666664 21.65625  0.125 20.890625  C 0.20833333333333337 20.125  0.3901515151515151 19.286458333333332  0.6704545454545454 18.375  C 0.9507575757575757 17.463541666666668  1.3106060606060606 16.658420138888886  1.75 15.959635416666668  C 2.1893939393939394 15.260850694444443  2.803030303030303 14.634982638888888  3.590909090909091 14.08203125  C 4.378787878787879 13.529079861111109  5.287878787878788 13.161458333333334  6.318181818181818 12.979166666666666  C 5.984848484848485 13.611111111111109  5.818181818181818 14.340277777777775  5.818181818181818 15.166666666666668  L 5.818181818181818 18.8671875  C 4.93939393939394 19.110243055555557  4.234848484848485 19.535590277777775  3.7045454545454546 20.143229166666668  C 3.1742424242424248 20.750868055555557  2.909090909090909 21.42534722222222  2.909090909090909 22.166666666666664  C 2.909090909090909 23.138888888888886  3.333333333333334 23.96527777777778  4.181818181818182 24.645833333333336  C 5.030303030303031 25.326388888888886  6.060606060606061 25.666666666666664  7.2727272727272725 25.666666666666664  C 8.484848484848486 25.666666666666664  9.515151515151516 25.326388888888886  10.363636363636363 24.645833333333336  C 11.212121212121213 23.96527777777778  11.636363636363637 23.138888888888886  11.636363636363637 22.166666666666664  C 11.636363636363637 21.42534722222222  11.367424242424242 20.750868055555557  10.829545454545455 20.143229166666668  C 10.291666666666668 19.535590277777775  9.590909090909092 19.110243055555557  8.727272727272727 18.8671875  L 8.727272727272727 15.166666666666668  C 8.727272727272727 14.413194444444443  8.916666666666666 13.848090277777779  9.295454545454545 13.471354166666666  C 11.295454545454545 14.735243055555557  13.530303030303031 15.3671875  16 15.3671875  C 18.469696969696972 15.3671875  20.704545454545457 14.735243055555557  22.704545454545453 13.471354166666666  C 23.083333333333336 13.848090277777779  23.272727272727273 14.413194444444443  23.272727272727273 15.166666666666668  L 23.272727272727273 16.333333333333332  C 21.66666666666667 16.333333333333332  20.295454545454547 16.7890625  19.15909090909091 17.700520833333332  C 18.022727272727273 18.611979166666668  17.454545454545453 19.711805555555557  17.454545454545453 21  L 17.454545454545453 22.622395833333336  C 16.969696969696972 22.974826388888886  16.727272727272727 23.40625  16.727272727272727 23.916666666666664  C 16.727272727272727 24.40277777777778  16.93939393939394 24.81597222222222  17.363636363636363 25.15625  C 17.78787878787879 25.49652777777778  18.303030303030308 25.666666666666664  18.90909090909091 25.666666666666664  C 19.515151515151516 25.666666666666664  20.03030303030303 25.49652777777778  20.454545454545453 25.15625  C 20.87878787878788 24.81597222222222  21.09090909090909 24.40277777777778  21.09090909090909 23.916666666666664  C 21.09090909090909 23.40625  20.848484848484848 22.974826388888886  20.363636363636363 22.622395833333336  L 20.363636363636363 21  C 20.363636363636363 20.368055555555557  20.651515151515152 19.821180555555557  21.227272727272727 19.359375  C 21.803030303030308 18.897569444444443  22.484848484848488 18.666666666666668  23.272727272727273 18.666666666666668  C 24.060606060606062 18.666666666666668  24.742424242424246 18.897569444444443  25.318181818181817 19.359375  C 25.893939393939398 19.821180555555557  26.181818181818183 20.368055555555557  26.181818181818183 21  L 26.181818181818183 22.622395833333336  C 25.6969696969697 22.974826388888886  25.454545454545453 23.40625  25.454545454545453 23.916666666666664  C 25.454545454545453 24.40277777777778  25.66666666666667 24.81597222222222  26.09090909090909 25.15625  C 26.515151515151516 25.49652777777778  27.030303030303035 25.666666666666664  27.636363636363637 25.666666666666664  C 28.242424242424246 25.666666666666664  28.75757575757576 25.49652777777778  29.181818181818183 25.15625  C 29.60606060606061 24.81597222222222  29.818181818181817 24.40277777777778  29.818181818181817 23.916666666666664  C 29.818181818181817 23.40625  29.575757575757578 22.974826388888886  29.09090909090909 22.622395833333336  L 29.09090909090909 21  C 29.09090909090909 20.173611111111107  28.829545454545453 19.398871527777775  28.306818181818183 18.67578125  C 27.78409090909091 17.952690972222218  27.075757575757578 17.384548611111107  26.181818181818183 16.971354166666668  C 26.181818181818183 16.849826388888886  26.185606060606062 16.591579861111114  26.193181818181817 16.196614583333332  C 26.200757575757578 15.801649305555557  26.200757575757578 15.509982638888888  26.193181818181817 15.321614583333332  C 26.185606060606062 15.133246527777775  26.16666666666667 14.881076388888888  26.136363636363637 14.565104166666668  C 26.10606060606061 14.249131944444443  26.053030303030308 13.963541666666666  25.977272727272727 13.708333333333334  C 25.901515151515152 13.453125  25.803030303030308 13.210069444444443  25.681818181818183 12.979166666666666  C 26.712121212121215 13.161458333333334  27.621212121212125 13.529079861111109  28.40909090909091 14.08203125  C 29.1969696969697 14.634982638888888  29.810606060606062 15.260850694444443  30.25 15.959635416666668  C 30.68939393939394 16.658420138888886  31.049242424242426 17.463541666666668  31.329545454545453 18.375  C 31.609848484848488 19.286458333333332  31.79166666666667 20.125  31.875 20.890625  Z M 22.170454545454547 2.05078125  C 23.875 3.41796875  24.727272727272727 5.067708333333334  24.727272727272727 7  C 24.727272727272727 8.932291666666666  23.875 10.58203125  22.170454545454547 11.94921875  C 20.46590909090909 13.31640625  18.40909090909091 14  16 14  C 13.590909090909092 14  11.534090909090908 13.31640625  9.829545454545455 11.94921875  C 8.125 10.58203125  7.2727272727272725 8.932291666666666  7.2727272727272725 7  C 7.2727272727272725 5.067708333333334  8.125 3.41796875  9.829545454545455 2.05078125  C 11.534090909090908 0.68359375  13.590909090909092 0  16 0  C 18.40909090909091 0  20.46590909090909 0.68359375  22.170454545454547 2.05078125  Z " fill-rule="nonzero" fill="#333333" stroke="none" transform="matrix(1 0 0 1 620 219 )" />
  </g>
</svg>